<?xml version="1.0" encoding="utf-8"?>
<!-- Generator: Adobe Illustrator 19.0.0, SVG Export Plug-In . SVG Version: 6.00 Build 0)  -->
<svg version="1.1" id="Layer_11" xmlns="http://www.w3.org/2000/svg" xmlns:xlink="http://www.w3.org/1999/xlink" x="0px" y="0px"
	 viewBox="0 0 24 24" style="enable-background:new 0 0 24 24;" xml:space="preserve">
<style type="text/css">
	.st0{fill:#FFFFFF;}
</style>
<g>
	<g>
		<path class="st0" d="M16.1,8.8c-0.2-0.2-0.6-0.2-0.8,0c-0.2,0.2-0.2,0.6,0,0.8c1.3,1.1,1.4,3.1,0.3,4.4c-0.1,0.1-0.2,0.2-0.3,0.3
			c-0.2,0.2-0.2,0.6,0,0.8c0.2,0.2,0.6,0.2,0.8,0c1.8-1.5,1.9-4.2,0.4-6C16.4,9.1,16.3,8.9,16.1,8.8z"/>
		<path class="st0" d="M17.8,15.7c-0.2,0.2-0.2,0.6,0,0.8c0.2,0.2,0.5,0.2,0.7,0c2.5-2.3,2.6-6.1,0.4-8.6c-0.1-0.1-0.2-0.3-0.4-0.4
			c-0.2-0.2-0.6-0.2-0.8,0.1c-0.2,0.2-0.2,0.5,0,0.7c2,1.9,2.2,5,0.3,7C18,15.5,17.9,15.6,17.8,15.7L17.8,15.7z"/>
		<path class="st0" d="M13.8,6.3c-0.1-0.3-0.3-0.5-0.6-0.4c-0.1,0-0.1,0-0.2,0.1l-4.8,3H6.6c-0.7,0-1.3,0.6-1.3,1.3v3.7
			c0,0.7,0.6,1.3,1.3,1.3h1.7l4.8,3c0.3,0.2,0.6,0.1,0.8-0.2c0-0.1,0.1-0.1,0.1-0.2C14.6,14,14.6,10,13.8,6.3z M6.4,13.9v-3.7
			c0-0.1,0.1-0.2,0.2-0.2h1.3v4.1H6.6C6.5,14.1,6.4,14,6.4,13.9z M12.9,16.8L9,14.3V9.7l3.9-2.4C13.4,10.4,13.4,13.6,12.9,16.8z"/>
	</g>
</g>
</svg>
